PathFileType	4	(X/Y/Z)	C:\Users\Basilio\Documents\Thesis Gigler\squatting_fais\c3dfiles\073\SLS_back_pre2\markers_experimental.trc
DataRate	CameraRate	NumFrames	NumMarkers	Units	OrigDataRate	OrigDataStartFrame	OrigNumFrames
200.000000	200.000000	4	61	mm	200.000000	158	1267
Frame#	Time	FHD			LBHD			RBHD			C7			T10			CLAV			LSHO			LUUPA			LMUPA			LDUPA			LLEP			LMEP			LRAD			LUL			LRFIN			RSHO			RUPA1			RMUPA			RDUPA			RLEP			RMEP			RRAD			RUL			RUFIN			LASI			RASI			USACR			LSACR			RSACR			LTHI1			LTHI2			LTHI3			LTHI4			LLFC			LMFC			LTIB1			LTIB2			LTIB3			LTIB4			LLMAL			LMMAL			LHEE			LMT1			LMT2			LMT5			RTHI			RTHI2			RTHI3			RTHI4			RLFC			RTIB1			RTIB2			RTIB3			RTIB4			RLMAL			RMMAL			RHEE			RMT1			RMT2			RMT5			RMFC			
		X1	Y1	Z1	X2	Y2	Z2	X3	Y3	Z3	X4	Y4	Z4	X5	Y5	Z5	X6	Y6	Z6	X7	Y7	Z7	X8	Y8	Z8	X9	Y9	Z9	X10	Y10	Z10	X11	Y11	Z11	X12	Y12	Z12	X13	Y13	Z13	X14	Y14	Z14	X15	Y15	Z15	X16	Y16	Z16	X17	Y17	Z17	X18	Y18	Z18	X19	Y19	Z19	X20	Y20	Z20	X21	Y21	Z21	X22	Y22	Z22	X23	Y23	Z23	X24	Y24	Z24	X25	Y25	Z25	X26	Y26	Z26	X27	Y27	Z27	X28	Y28	Z28	X29	Y29	Z29	X30	Y30	Z30	X31	Y31	Z31	X32	Y32	Z32	X33	Y33	Z33	X34	Y34	Z34	X35	Y35	Z35	X36	Y36	Z36	X37	Y37	Z37	X38	Y38	Z38	X39	Y39	Z39	X40	Y40	Z40	X41	Y41	Z41	X42	Y42	Z42	X43	Y43	Z43	X44	Y44	Z44	X45	Y45	Z45	X46	Y46	Z46	X47	Y47	Z47	X48	Y48	Z48	X49	Y49	Z49	X50	Y50	Z50	X51	Y51	Z51	X52	Y52	Z52	X53	Y53	Z53	X54	Y54	Z54	X55	Y55	Z55	X56	Y56	Z56	X57	Y57	Z57	X58	Y58	Z58	X59	Y59	Z59	X60	Y60	Z60	X61	Y61	Z61	

159	0.79	-140.2601623535157	1680.450805664063	-748.4833374023439	-276.3455505371094	1657.062622070313	-775.0974121093752	-301.9662780761719	1638.38037109375	-641.9183959960939	-341.3692321777344	1537.452026367188	-704.7031860351564	-396.2680969238282	1202.425170898438	-720.1210937500001	-219.9462890625001	1449.715698242188	-707.5862426757814	-254.1025085449219	1497.279418945313	-851.7810668945315	-173.4821166992188	1419.042724609375	-943.8889160156252	-132.1988830566407	1438.990600585938	-922.4117431640627	-111.1039199829102	1391.449340820313	-954.7947998046877	-7.534905910491945	1365.440795898438	-958.361999511719	-12.46013927459717	1308.836791992188	-915.842712402344	250.6155853271485	1384.29736328125	-842.869812011719	255.4187774658204	1380.761962890625	-917.521911621094	332.7132263183594	1392.936767578125	-834.6186523437502	-232.6261749267579	1484.123901367188	-559.6272583007814	-141.4736938476563	1371.953247070313	-469.716522216797	-101.7204513549805	1393.619384765625	-485.6592102050782	-79.69414520263673	1341.139892578125	-467.045623779297	10.94810199737549	1320.671142578125	-470.1600036621095	3.640300512313844	1270.82275390625	-536.0024414062501	258.2901000976563	1353.904907226563	-588.4417114257814	271.4919433593751	1354.78173828125	-516.4549560546876	351.1561279296876	1379.273315429688	-593.9328613281251	-238.6300964355469	1036.00830078125	-852.1074218750002	-238.8476715087891	1023.89013671875	-601.5450439453126	-418.9307250976564	1102.8701171875	-723.7081298828126	-432.0646057128907	1075.786865234375	-753.4324951171876	-437.0264587402345	1072.022705078125	-697.1856079101564	-239.6168823242188	714.0824584960939	-907.1157226562502	-196.530014038086	642.4793090820314	-890.2193603515627	-157.0960235595703	650.3395385742189	-861.4028930664065	-221.013656616211	587.6419677734376	-884.4638671875002	-228.8612518310547	540.9913330078126	-885.2415161132815	-239.9661712646485	534.8519897460939	-751.0700073242189	-371.6197509765626	414.9827575683595	-843.540954589844	-429.2181396484376	454.0643920898439	-895.870788574219	-421.3826599121095	415.1793212890626	-876.412048339844	-494.8635864257814	386.2426757812501	-844.3288574218752	-626.4852905273439	400.9417724609376	-875.287292480469	-601.0078125000001	398.4739379882814	-788.7297363281252	-674.0815429687501	448.6231994628907	-832.8972167968752	-615.5581665039064	233.747787475586	-792.2720336914065	-615.0466308593751	230.7062530517579	-831.7832641601565	-647.9270019531251	257.0284423828126	-884.0064086914065	-339.0572509765626	794.837585449219	-551.2055664062501	-303.3164672851563	739.3783569335939	-553.1053466796876	-269.7666320800782	741.1224975585939	-553.1372680664064	-327.4286499023438	664.2361450195314	-580.5332031250001	-309.7841491699219	514.6399536132814	-605.8744506835939	-272.2984313964844	356.5779418945313	-704.8995361328126	-306.6855773925782	271.6112670898438	-646.8802490234376	-279.7794494628907	271.6088867187501	-687.2675781250001	-300.1107482910157	231.7052001953126	-724.5405273437501	-360.2101745605469	100.1808853149414	-685.6828002929689	-351.6461486816407	131.3633575439453	-770.087829589844	-430.769744873047	83.60523986816408	-743.9345092773439	-206.552230834961	55.40205001831056	-759.9837646484376	-206.1873474121094	50.88746643066408	-718.8491821289064	-248.6840820312501	33.83901977539063	-670.0450439453126	-297.1715698242188	512.9982910156251	-736.4248657226564	
160	0.795	-140.2884216308594	1680.469360351563	-748.5111083984376	-276.3062744140626	1657.0107421875	-775.1727294921877	-301.9421081542969	1638.317749023438	-642.0368041992189	-341.3845520019532	1537.472045898438	-704.8049926757814	-396.3631896972657	1202.4111328125	-720.2459106445314	-219.9948272705079	1449.587646484375	-707.6359252929689	-254.0639801025391	1497.2392578125	-851.869079589844	-173.466796875	1418.996948242188	-943.9486083984377	-132.1266174316407	1438.921875	-922.5050048828127	-111.0415344238282	1391.419921875	-954.836364746094	-7.524198055267336	1365.360229492188	-958.3699951171877	-12.43607425689698	1308.729248046875	-915.8362426757815	250.7132110595704	1384.322875976563	-842.808532714844	255.5175476074219	1380.657836914063	-917.4719238281252	332.7217102050782	1392.814453125	-834.573913574219	-232.6747131347657	1484.097045898438	-559.7772216796876	-141.6213684082032	1371.92578125	-469.8225708007814	-101.7488021850586	1393.610229492188	-485.7615661621095	-79.71578216552736	1341.116333007813	-467.1116943359376	10.90731143951416	1320.62158203125	-470.2698669433595	3.633598566055299	1270.75	-536.0714111328126	258.3019104003907	1353.836547851563	-588.4203491210939	271.4303894042969	1354.737426757813	-516.4144897460939	351.1373901367188	1379.224731445313	-593.8224487304689	-238.7515106201172	1035.928955078125	-852.206481933594	-238.9936065673829	1023.789184570313	-601.6009521484376	-419.1114501953126	1102.858642578125	-723.8045654296876	-432.1758728027345	1075.744750976563	-753.5347900390626	-437.099334716797	1072.000366210938	-697.2644042968751	-239.6782226562501	713.9627075195314	-907.1382446289065	-196.7400054931641	642.3926391601564	-890.131530761719	-157.2187042236328	650.2108764648439	-861.302429199219	-221.187973022461	587.5590209960939	-884.4064941406252	-229.0227661132813	540.8612060546876	-885.2138671875002	-240.1615447998047	534.8029174804689	-750.9479370117189	-371.8841247558594	414.9363098144532	-843.4246215820315	-429.6000366210939	454.1262817382814	-895.925231933594	-421.5761718750001	415.2206115722657	-876.4236450195315	-495.125213623047	386.2043457031251	-844.3859863281252	-626.6948852539064	400.933807373047	-875.3308105468752	-601.3009643554689	398.4749755859376	-788.7554931640627	-674.3090820312501	448.6270751953126	-832.920104980469	-615.8201904296876	233.763412475586	-792.3287353515627	-615.4820556640626	230.6736450195313	-831.7620239257815	-648.2482299804689	256.9863281250001	-883.9563598632815	-339.0230102539063	794.8149414062502	-551.2541503906251	-303.2074890136719	739.4059448242189	-553.1456909179689	-269.6702880859376	741.1330566406251	-553.2086791992189	-327.2984619140626	664.2172241210939	-580.5499877929689	-309.5910034179688	514.6187133789064	-605.9167480468751	-272.2701721191407	356.5498046875001	-704.9563598632814	-306.5990905761719	271.6148376464844	-646.9140625000001	-279.6894836425782	271.6000061035157	-687.2457275390626	-300.0925292968751	231.6615295410157	-724.5443115234376	-360.1901855468751	100.1651992797852	-685.6980590820314	-351.6772766113282	131.3271179199219	-770.0277099609377	-430.7519531250001	83.59597778320314	-743.8988037109376	-206.6311492919922	55.39018630981447	-759.9721679687501	-206.2146301269532	50.8907814025879	-718.8291015625001	-248.7116088867188	33.84414291381837	-670.0498046875001	-296.9215698242188	513.0073852539064	-736.4472045898439	
161	0.8	-140.3430633544922	1680.369995117188	-748.6005859375001	-276.3666076660157	1656.933837890625	-775.3010864257815	-301.9747009277344	1638.289428710938	-642.2789306640626	-341.3893737792969	1537.427124023438	-704.9452514648439	-396.3540649414064	1202.367553710938	-720.4022216796876	-220.0383453369141	1449.45556640625	-707.7468872070314	-254.0408935546876	1497.171264648438	-851.9389648437502	-173.3990478515625	1418.877197265625	-944.0231933593752	-132.1338806152344	1438.8115234375	-922.494567871094	-111.0053329467774	1391.326904296875	-954.8061523437502	-7.450954437255861	1365.343627929688	-958.4053955078127	-12.43550205230713	1308.609008789063	-915.8062744140627	250.7159271240235	1384.247436523438	-842.5909423828127	255.6076965332032	1380.547119140625	-917.4415283203127	332.6924133300782	1392.782958984375	-834.6611328125002	-232.7354125976563	1484.049438476563	-559.9072265625001	-141.6526794433594	1371.847900390625	-469.8867797851564	-101.8223953247071	1393.546875	-485.8053588867189	-79.79125976562501	1341.0517578125	-467.1595458984376	10.82458019256592	1320.579223632813	-470.2704467773439	3.550914525985719	1270.664306640625	-536.0501098632814	258.2742919921876	1353.83203125	-588.4129638671876	271.3829040527344	1354.69091796875	-516.3900146484376	351.0841064453126	1379.192749023438	-593.8399047851564	-238.8131256103516	1035.89990234375	-852.279479980469	-239.1382904052735	1023.722534179688	-601.7218627929689	-419.1411437988282	1102.827270507813	-723.9270019531251	-432.2445373535157	1075.710571289063	-753.6645507812501	-437.249237060547	1072.012084960938	-697.3495483398439	-239.8071746826172	713.8578491210939	-907.0842285156252	-196.8664245605469	642.2457275390626	-890.0095825195315	-157.3889923095703	650.0974121093751	-861.1889648437502	-221.3225402832032	587.4351196289064	-884.2933349609377	-229.1717834472657	540.8075561523439	-885.1795043945315	-240.4604034423829	534.7098388671876	-750.8939208984376	-372.0631408691407	414.8822631835939	-843.3801879882815	-429.7299804687501	454.0007324218751	-896.0271606445315	-421.8052368164064	415.1092529296876	-876.354187011719	-495.3611755371095	386.2048950195314	-844.3975830078127	-626.8865966796876	400.8999023437501	-875.360778808594	-601.5645141601564	398.4785156250001	-788.739196777344	-674.5102539062501	448.6419372558595	-832.9379882812502	-616.0845336914064	233.7507781982422	-792.3426513671877	-615.7987670898439	230.6218872070313	-831.6629028320315	-648.4174804687501	256.9880065917969	-883.9357910156252	-338.9490051269532	794.7691040039065	-551.3241577148439	-303.1027832031251	739.3983154296876	-553.2256469726564	-269.5570983886719	741.1364135742189	-553.2644042968751	-327.1196594238282	664.1846313476564	-580.6390380859376	-309.4068603515626	514.6199340820314	-605.8859863281251	-272.1433410644532	356.5115356445313	-704.9315185546876	-306.5000610351563	271.6095275878907	-646.8852539062501	-279.5776062011719	271.5534362792969	-687.2518920898439	-299.9916381835938	231.6363983154297	-724.5534667968751	-360.1920471191407	100.1546020507813	-685.6720581054689	-351.7067260742188	131.3351135253907	-770.018737792969	-430.7650756835939	83.59783935546876	-743.8900146484376	-206.6476745605469	55.3755226135254	-759.9845581054689	-206.2107086181641	50.893367767334	-718.8181762695314	-248.7234954833985	33.83965682983399	-670.0454711914064	-296.5024719238282	512.9158325195314	-736.3255004882814	
162	0.805	-140.4379425048828	1680.357299804688	-748.6198120117189	-276.3751831054688	1656.884887695313	-775.4170532226565	-302.0152282714844	1638.230712890625	-642.3526611328126	-341.4110412597657	1537.385009765625	-705.0067138671876	-396.4518432617189	1202.339477539063	-720.5123291015626	-219.9910278320313	1449.393676757813	-707.8663940429689	-254.0287628173829	1497.114135742188	-852.0175781250002	-173.3637084960938	1418.81640625	-944.0984497070315	-132.0299835205078	1438.751220703125	-922.5495605468752	-111.2130737304688	1391.17333984375	-955.0167236328127	-7.315958976745607	1365.2294921875	-958.433288574219	-12.42884159088135	1308.532592773438	-915.7962646484377	250.7068939208985	1384.103637695313	-842.6155395507815	255.5872955322266	1380.440063476563	-917.3654785156252	332.7131042480469	1392.615600585938	-834.6026000976565	-232.7955169677735	1484.015380859375	-559.9873046875001	-141.762680053711	1371.788330078125	-469.9824218750001	-101.8861770629883	1393.488525390625	-485.8512573242189	-79.87860107421876	1340.985717773438	-467.2022399902345	10.77226829528809	1320.557983398438	-470.2872009277345	3.517702817916871	1270.608276367188	-536.1293334960939	258.2256164550782	1353.76708984375	-588.4157714843751	271.1956481933594	1354.59375	-516.3597412109376	351.0933532714844	1379.078125	-594.0111083984376	-238.9436798095704	1035.80224609375	-852.4122314453127	-239.2347717285157	1023.631896972656	-601.8537597656251	-419.3202209472657	1102.802612304688	-724.0443115234376	-432.3472900390626	1075.6796875	-753.7436523437501	-437.273651123047	1072.006469726563	-697.4768676757814	-240.0410614013672	713.7542724609376	-907.029235839844	-196.976303100586	642.1472167968751	-889.952087402344	-157.5234985351563	649.9982910156251	-861.124450683594	-221.524398803711	587.3406982421876	-884.267028808594	-229.356674194336	540.6812744140626	-885.0825805664065	-240.6877899169922	534.6497192382814	-750.8356933593751	-372.3388671875001	414.8488769531251	-843.2354736328127	-429.814910888672	453.9389038085939	-895.9606933593752	-422.2581176757814	414.968719482422	-876.5008544921877	-495.6069641113282	386.1372070312501	-844.3853759765627	-627.1320800781251	400.8735656738282	-875.4202880859377	-601.7980957031251	398.4672851562501	-788.7891845703127	-674.7124023437501	448.6764526367189	-832.9839477539065	-616.3712158203126	233.7788391113282	-792.3831176757815	-616.0747070312501	230.5458221435547	-831.6634521484377	-648.6657104492189	256.9853515625001	-883.931823730469	-338.8771362304688	794.772644042969	-551.3478393554689	-303.0341186523438	739.4197387695314	-553.2731933593751	-269.4823913574219	741.1838378906251	-553.3477172851564	-326.9676513671876	664.1341552734376	-580.6327514648439	-309.1855468750001	514.6121826171876	-605.8626098632814	-272.1740722656251	356.4352416992188	-704.9490356445314	-306.3776550292969	271.5689392089844	-646.9159545898439	-279.4832763671876	271.5343322753907	-687.2428588867189	-299.9852600097657	231.5728607177735	-724.5891113281251	-360.1506652832032	100.1320343017578	-685.6633300781251	-351.6904296875001	131.3755493164063	-770.0181884765627	-430.7478027343751	83.60359954833986	-743.8593139648439	-206.6229095458985	55.3568458557129	-759.9720458984376	-206.2115020751954	50.89426040649415	-718.8227539062501	-248.7115631103516	33.84747695922852	-670.0535278320314	-296.5864562988282	512.9083862304689	-736.4122924804689	
